<svg width="57" height="56" viewBox="0 0 57 56" fill="none" xmlns="http://www.w3.org/2000/svg">
    <path
        d="M19.1667 44.3333C18.5056 44.3333 17.9514 44.1097 17.5042 43.6625C17.0569 43.2152 16.8333 42.6611 16.8333 42C16.8333 41.3388 17.0569 40.7847 17.5042 40.3375C17.9514 39.8902 18.5056 39.6666 19.1667 39.6666H33.4C35.85 39.6666 37.9792 38.8888 39.7875 37.3333C41.5958 35.7777 42.5 33.8333 42.5 31.5C42.5 29.1666 41.5958 27.2222 39.7875 25.6666C37.9792 24.1111 35.85 23.3333 33.4 23.3333H18.7L23.1333 27.7666C23.5611 28.1944 23.775 28.7388 23.775 29.4C23.775 30.0611 23.5611 30.6055 23.1333 31.0333C22.7056 31.4611 22.1611 31.675 21.5 31.675C20.8389 31.675 20.2944 31.4611 19.8667 31.0333L11.4667 22.6333C11.2333 22.4 11.0681 22.1472 10.9708 21.875C10.8736 21.6027 10.825 21.3111 10.825 21C10.825 20.6888 10.8736 20.3972 10.9708 20.125C11.0681 19.8527 11.2333 19.6 11.4667 19.3666L19.8667 10.9666C20.2944 10.5388 20.8389 10.325 21.5 10.325C22.1611 10.325 22.7056 10.5388 23.1333 10.9666C23.5611 11.3944 23.775 11.9388 23.775 12.6C23.775 13.2611 23.5611 13.8055 23.1333 14.2333L18.7 18.6666H33.4C37.1722 18.6666 40.4097 19.8916 43.1125 22.3416C45.8153 24.7916 47.1667 27.8444 47.1667 31.5C47.1667 35.1555 45.8153 38.2083 43.1125 40.6583C40.4097 43.1083 37.1722 44.3333 33.4 44.3333H19.1667Z"
        fill="#404A52" />
</svg>
