<svg width="24" height="24" viewBox="0 0 24 24" fill="none" xmlns="http://www.w3.org/2000/svg">
    <path fill-rule="evenodd" clip-rule="evenodd"
        d="M9.27925 12.7405V9.92372C9.27989 9.59822 9.40789 9.28623 9.63523 9.05606C9.86256 8.8259 10.1707 8.69631 10.4922 8.69566H12.9086V3.46892C12.9078 3.3448 12.8587 3.22598 12.7721 3.1382C12.6854 3.05043 12.568 3.00078 12.4454 3H0.463163C0.340519 3.00064 0.223077 3.05025 0.136354 3.13805C0.0496304 3.22585 0.000630573 3.34475 0 3.46892V12.2716C0.000561086 12.3958 0.0495386 12.5147 0.136277 12.6025C0.223016 12.6904 0.340497 12.7399 0.463163 12.7405H2.4798C2.53073 12.7405 2.58117 12.7507 2.62821 12.7704C2.67525 12.7902 2.71798 12.8192 2.75395 12.8557C2.78991 12.8922 2.81841 12.9356 2.8378 12.9832C2.8572 13.0309 2.86711 13.082 2.86697 13.1336V14.8916L4.73535 13.7993C4.74202 13.795 4.74842 13.7907 4.75535 13.7869L6.42855 12.8088C6.49243 12.7649 6.56787 12.7415 6.64507 12.7416L9.27925 12.7405ZM12.6278 12.5307C12.5753 12.5335 12.5228 12.5255 12.4735 12.5071C12.4242 12.4887 12.3791 12.4603 12.341 12.4237C12.3029 12.387 12.2725 12.3429 12.2517 12.294C12.231 12.2452 12.2203 12.1925 12.2203 12.1393C12.2203 12.0861 12.231 12.0334 12.2517 11.9846C12.2725 11.9357 12.3029 11.8916 12.341 11.8549C12.3791 11.8183 12.4242 11.7899 12.4735 11.7715C12.5228 11.7531 12.5753 11.7451 12.6278 11.7479H15.8209C15.8733 11.7451 15.9258 11.7531 15.9751 11.7715C16.0245 11.7899 16.0695 11.8183 16.1077 11.8549C16.1458 11.8916 16.1762 11.9357 16.1969 11.9846C16.2176 12.0334 16.2283 12.0861 16.2283 12.1393C16.2283 12.1925 16.2176 12.2452 16.1969 12.294C16.1762 12.3429 16.1458 12.387 16.1077 12.4237C16.0695 12.4603 16.0245 12.4887 15.9751 12.5071C15.9258 12.5255 15.8733 12.5335 15.8209 12.5307H12.6278ZM12.6278 15.0184C12.5753 15.0212 12.5228 15.0132 12.4735 14.9948C12.4242 14.9764 12.3791 14.948 12.341 14.9114C12.3029 14.8747 12.2725 14.8306 12.2517 14.7817C12.231 14.7329 12.2203 14.6802 12.2203 14.627C12.2203 14.5738 12.231 14.5211 12.2517 14.4723C12.2725 14.4234 12.3029 14.3793 12.341 14.3427C12.3791 14.306 12.4242 14.2776 12.4735 14.2592C12.5228 14.2408 12.5753 14.2328 12.6278 14.2356H19.9984C20.0974 14.2408 20.1907 14.2844 20.2589 14.3572C20.3272 14.43 20.3652 14.5266 20.3652 14.627C20.3652 14.7274 20.3272 14.824 20.2589 14.8968C20.1907 14.9696 20.0974 15.0132 19.9984 15.0184H12.6278ZM12.6278 17.3388C12.5753 17.3416 12.5228 17.3335 12.4735 17.3151C12.4242 17.2967 12.3791 17.2683 12.341 17.2317C12.3029 17.1951 12.2725 17.151 12.2517 17.1021C12.231 17.0532 12.2203 17.0005 12.2203 16.9473C12.2203 16.8941 12.231 16.8415 12.2517 16.7926C12.2725 16.7437 12.3029 16.6996 12.341 16.663C12.3791 16.6264 12.4242 16.598 12.4735 16.5796C12.5228 16.5611 12.5753 16.5531 12.6278 16.5559H19.9984C20.0509 16.5531 20.1034 16.5611 20.1527 16.5796C20.202 16.598 20.2471 16.6264 20.2852 16.663C20.3233 16.6996 20.3537 16.7437 20.3744 16.7926C20.3952 16.8415 20.4059 16.8941 20.4059 16.9473C20.4059 17.0005 20.3952 17.0532 20.3744 17.1021C20.3537 17.151 20.3233 17.1951 20.2852 17.2317C20.2471 17.2683 20.202 17.2967 20.1527 17.3151C20.1034 17.3335 20.0509 17.3416 19.9984 17.3388H12.6278ZM19.9917 12.6684C20.0625 12.6404 20.1235 12.592 20.1672 12.5291L22.2737 9.50339C22.337 9.52604 22.3943 9.56296 22.4414 9.61137C22.4823 9.65248 22.5147 9.70134 22.5369 9.75517C22.5591 9.809 22.5706 9.86674 22.5707 9.92507V18.4753C22.5704 18.5931 22.524 18.7059 22.4418 18.7891C22.3596 18.8724 22.2481 18.9193 22.1318 18.9197H16.4981C16.421 18.9196 16.3456 18.9429 16.2816 18.9866L14.6567 19.9366L14.637 19.9493L12.839 21V19.3117C12.839 19.2078 12.7983 19.1082 12.7258 19.0347C12.6533 18.9612 12.5549 18.9198 12.4523 18.9197H10.4928C10.3766 18.919 10.2653 18.8719 10.1832 18.7887C10.101 18.7056 10.0546 18.5929 10.0539 18.4753V9.92372C10.0544 9.80605 10.1008 9.69335 10.183 9.61014C10.2652 9.52693 10.3765 9.47993 10.4928 9.47936H18.4655L17.6122 10.7047C17.5693 10.7663 17.5449 10.8392 17.5421 10.9145L17.3181 13.2864C17.3115 13.3561 17.3236 13.4263 17.353 13.4897C17.3825 13.5531 17.4282 13.6073 17.4855 13.6466C17.5428 13.686 17.6094 13.7089 17.6785 13.7132C17.7476 13.7174 17.8165 13.7028 17.878 13.6708L19.9936 12.6684H19.9917ZM18.2468 11.6374L18.1484 12.6798L19.0854 12.2359L18.2468 11.6374ZM23.0712 7.00219L21.7777 6.07865L19.5379 9.29309C19.5298 9.30658 19.5209 9.31957 19.5112 9.33196L18.4641 10.8357L19.7573 11.7589L21.7612 8.88194C21.7694 8.86833 21.7783 8.85517 21.7878 8.84252L23.0699 7.00219H23.0712ZM22.2235 5.43965L22.6768 4.79174C22.7022 4.75601 22.7406 4.73193 22.7835 4.72479C22.805 4.7208 22.827 4.72113 22.8483 4.72576C22.8696 4.73039 22.8898 4.73924 22.9078 4.75178L23.9311 5.48257C23.9487 5.49525 23.9635 5.51132 23.9749 5.52986C23.9862 5.5484 23.9938 5.56903 23.9973 5.59056C24.0052 5.6345 23.9956 5.67984 23.9706 5.71663L23.5192 6.36454L22.2235 5.43965ZM6.06751 11.4787C6.06475 11.4256 6.07271 11.3724 6.0909 11.3225C6.10908 11.2726 6.13711 11.2269 6.17329 11.1883C6.20946 11.1497 6.25302 11.119 6.3013 11.098C6.34959 11.077 6.40159 11.0662 6.45415 11.0662C6.5067 11.0662 6.55871 11.077 6.60699 11.098C6.65528 11.119 6.69883 11.1497 6.73501 11.1883C6.77118 11.2269 6.79922 11.2726 6.8174 11.3225C6.83559 11.3724 6.84354 11.4256 6.84078 11.4787V11.5408C6.84354 11.5939 6.83559 11.6471 6.8174 11.697C6.79922 11.7469 6.77118 11.7926 6.73501 11.8312C6.69883 11.8698 6.65528 11.9005 6.60699 11.9215C6.55871 11.9425 6.5067 11.9533 6.45415 11.9533C6.40159 11.9533 6.34959 11.9425 6.3013 11.9215C6.25302 11.9005 6.20946 11.8698 6.17329 11.8312C6.13711 11.7926 6.10908 11.7469 6.0909 11.697C6.07271 11.6471 6.06475 11.5939 6.06751 11.5408V11.4787ZM5.10572 6.70037C5.10052 6.80063 5.05752 6.89505 4.98558 6.96416C4.91364 7.03327 4.81825 7.07179 4.71909 7.07179C4.61992 7.07179 4.52453 7.03327 4.4526 6.96416C4.38066 6.89505 4.33766 6.80063 4.33245 6.70037C4.32931 6.41609 4.38189 6.13401 4.48716 5.87045C4.59244 5.60689 4.74831 5.36709 4.94575 5.16494C5.14319 4.96279 5.37828 4.8023 5.63741 4.69277C5.89653 4.58324 6.17455 4.52684 6.45535 4.52684C6.73615 4.52684 7.01416 4.58324 7.27329 4.69277C7.53241 4.8023 7.7675 4.96279 7.96495 5.16494C8.16239 5.36709 8.31826 5.60689 8.42353 5.87045C8.5288 6.13401 8.58139 6.41609 8.57825 6.70037C8.58465 7.15959 8.42418 7.60518 8.12735 7.95246C7.83549 8.28046 7.4843 8.54886 7.09276 8.74318C7.03762 8.77607 6.99062 8.82129 6.95536 8.87537C6.9201 8.92946 6.89751 8.99098 6.88931 9.05525C6.84633 9.34555 6.83079 9.63934 6.84292 9.93263C6.84567 9.98576 6.83772 10.0389 6.81953 10.0888C6.80135 10.1388 6.77331 10.1844 6.73714 10.223C6.70097 10.2616 6.65741 10.2923 6.60913 10.3133C6.56084 10.3343 6.50884 10.3452 6.45628 10.3452C6.40373 10.3452 6.35172 10.3343 6.30344 10.3133C6.25515 10.2923 6.2116 10.2616 6.17542 10.223C6.13925 10.1844 6.11121 10.1388 6.09303 10.0888C6.07484 10.0389 6.06689 9.98576 6.06965 9.93263C6.0553 9.58258 6.07792 9.23198 6.13711 8.8868C6.16535 8.71049 6.23366 8.54324 6.33667 8.39824C6.43967 8.25324 6.57455 8.13446 6.73066 8.05126C7.03461 7.90379 7.3087 7.70017 7.53886 7.45087C7.71561 7.24247 7.81051 6.97555 7.80551 6.70091C7.80802 6.51996 7.77499 6.34031 7.70833 6.1724C7.64167 6.00449 7.54272 5.85166 7.41722 5.7228C7.29172 5.59394 7.14218 5.49162 6.97728 5.42178C6.81239 5.35194 6.63543 5.31597 6.45668 5.31597C6.27794 5.31597 6.10098 5.35194 5.93608 5.42178C5.77118 5.49162 5.62164 5.59394 5.49614 5.7228C5.37064 5.85166 5.27169 6.00449 5.20503 6.1724C5.13838 6.34031 5.10534 6.51996 5.10786 6.70091L5.10572 6.70037Z"
        fill="#404A52" />
</svg>
